<svg xmlns="http://www.w3.org/2000/svg" xmlns:xlink="http://www.w3.org/1999/xlink" width="500" zoomAndPan="magnify" viewBox="0 0 375 374.999991" height="500" preserveAspectRatio="xMidYMid meet" version="1.0"><defs><g/><clipPath id="2abf0f7911"><path d="M 39 127 L 97 127 L 97 217 L 39 217 Z M 39 127 " clip-rule="nonzero"/></clipPath><clipPath id="19873b3005"><path d="M 82.867188 118.355469 L 106.296875 206.429688 L 61.027344 218.472656 L 37.597656 130.398438 Z M 82.867188 118.355469 " clip-rule="nonzero"/></clipPath><clipPath id="a48a5f3a4f"><path d="M 49.144531 127.726562 C 70.421875 127.570312 89.113281 141.828125 94.582031 162.390625 C 100.054688 182.953125 90.917969 204.613281 72.378906 215.050781 C 67.886719 217.578125 62.195312 215.988281 59.667969 211.496094 C 57.136719 207.003906 58.730469 201.3125 63.222656 198.785156 C 74.347656 192.523438 79.828125 179.527344 76.542969 167.191406 C 73.261719 154.851562 62.050781 146.296875 49.28125 146.390625 C 44.128906 146.429688 39.921875 142.28125 39.882812 137.128906 C 39.84375 131.972656 43.992188 127.765625 49.144531 127.726562 Z M 49.144531 127.726562 " clip-rule="nonzero"/></clipPath><clipPath id="99ef5359e0"><path d="M 39 127 L 97 127 L 97 185 L 39 185 Z M 39 127 " clip-rule="nonzero"/></clipPath><clipPath id="574f744cf3"><path d="M 83.042969 118.308594 L 99.867188 181.546875 L 54.417969 193.636719 L 37.597656 130.398438 Z M 83.042969 118.308594 " clip-rule="nonzero"/></clipPath><clipPath id="d3be02d435"><path d="M 49.144531 127.726562 C 61.753906 127.632812 73.863281 132.648438 82.714844 141.625 C 91.566406 150.601562 96.410156 162.78125 96.140625 175.386719 C 96.03125 180.539062 91.761719 184.625 86.609375 184.515625 C 81.457031 184.40625 77.367188 180.140625 77.480469 174.988281 C 77.640625 167.421875 74.734375 160.117188 69.425781 154.730469 C 64.113281 149.34375 56.847656 146.335938 49.28125 146.390625 C 44.128906 146.429688 39.921875 142.28125 39.882812 137.128906 C 39.84375 131.972656 43.992188 127.765625 49.144531 127.726562 Z M 49.144531 127.726562 " clip-rule="nonzero"/></clipPath><clipPath id="467ce6bcc9"><path d="M 48 141 L 68 141 L 68 234 L 48 234 Z M 48 141 " clip-rule="nonzero"/></clipPath><clipPath id="c513cbf491"><path d="M 64.582031 141.058594 L 68.144531 233.480469 L 51.515625 234.125 L 47.953125 141.703125 Z M 64.582031 141.058594 " clip-rule="nonzero"/></clipPath><clipPath id="6dc135c019"><path d="M 64.902344 149.375 L 67.820312 225.117188 C 68 229.710938 64.421875 233.574219 59.828125 233.753906 C 55.238281 233.929688 51.371094 230.351562 51.195312 225.757812 L 48.273438 150.015625 C 48.097656 145.421875 51.675781 141.558594 56.269531 141.382812 C 60.859375 141.203125 64.726562 144.78125 64.902344 149.375 Z M 64.902344 149.375 " clip-rule="nonzero"/></clipPath><clipPath id="903ec1cdaf"><path d="M 48 141 L 67 141 L 67 204 L 48 204 Z M 48 141 " clip-rule="nonzero"/></clipPath><clipPath id="98b0f49a20"><path d="M 64.582031 141.058594 L 66.96875 202.957031 L 50.339844 203.597656 L 47.953125 141.703125 Z M 64.582031 141.058594 " clip-rule="nonzero"/></clipPath><clipPath id="4c8643acc6"><path d="M 64.902344 149.375 L 66.648438 194.636719 C 66.824219 199.226562 63.246094 203.09375 58.652344 203.269531 C 54.0625 203.445312 50.195312 199.867188 50.019531 195.277344 L 48.273438 150.015625 C 48.097656 145.421875 51.675781 141.558594 56.269531 141.382812 C 60.859375 141.203125 64.726562 144.78125 64.902344 149.375 Z M 64.902344 149.375 " clip-rule="nonzero"/></clipPath></defs><g clip-path="url(#2abf0f7911)"><g clip-path="url(#19873b3005)"><g clip-path="url(#a48a5f3a4f)"><path fill="#6ce5e8" d="M 82.585938 117.296875 L 106.578125 207.484375 L 61.484375 219.480469 L 37.492188 129.292969 Z M 82.585938 117.296875 " fill-opacity="1" fill-rule="nonzero"/></g></g></g><g clip-path="url(#99ef5359e0)"><g clip-path="url(#574f744cf3)"><g clip-path="url(#d3be02d435)"><path fill="#41b8d5" d="M 82.585938 117.296875 L 106.578125 207.484375 L 61.484375 219.480469 L 37.492188 129.292969 Z M 82.585938 117.296875 " fill-opacity="1" fill-rule="nonzero"/></g></g></g><g clip-path="url(#467ce6bcc9)"><g clip-path="url(#c513cbf491)"><g clip-path="url(#6dc135c019)"><path fill="#6ce5e8" d="M 64.582031 141.058594 L 68.140625 233.417969 L 51.515625 234.058594 L 47.953125 141.703125 Z M 64.582031 141.058594 " fill-opacity="1" fill-rule="nonzero"/></g></g></g><g clip-path="url(#903ec1cdaf)"><g clip-path="url(#98b0f49a20)"><g clip-path="url(#4c8643acc6)"><path fill="#41b8d5" d="M 64.582031 141.058594 L 68.140625 233.417969 L 51.515625 234.058594 L 47.953125 141.703125 Z M 64.582031 141.058594 " fill-opacity="1" fill-rule="nonzero"/></g></g></g><g fill="#41b8d5" fill-opacity="1"><g transform="translate(114.286499, 191.212605)"><g><path d="M 17.484375 -35.6875 C 23.273438 -35.6875 27.695312 -34.1875 30.75 -31.1875 C 33.800781 -28.195312 35.328125 -23.75 35.328125 -17.84375 C 35.328125 -11.957031 33.800781 -7.507812 30.75 -4.5 C 27.695312 -1.5 23.273438 0 17.484375 0 L 4.640625 0 L 4.640625 -35.6875 Z M 17.0625 -5.9375 C 20.738281 -5.9375 23.488281 -6.875 25.3125 -8.75 C 27.132812 -10.632812 28.046875 -13.664062 28.046875 -17.84375 C 28.046875 -22.03125 27.132812 -25.0625 25.3125 -26.9375 C 23.488281 -28.820312 20.738281 -29.765625 17.0625 -29.765625 L 11.6875 -29.765625 L 11.6875 -5.9375 Z M 17.0625 -5.9375 "/></g></g></g><g fill="#41b8d5" fill-opacity="1"><g transform="translate(152.439713, 191.212605)"><g><path d="M 10.5 0.515625 C 8.769531 0.515625 7.269531 0.195312 6 -0.4375 C 4.738281 -1.070312 3.765625 -2.003906 3.078125 -3.234375 C 2.390625 -4.460938 2.046875 -5.941406 2.046875 -7.671875 C 2.046875 -9.265625 2.390625 -10.601562 3.078125 -11.6875 C 3.765625 -12.769531 4.820312 -13.65625 6.25 -14.34375 C 7.6875 -15.03125 9.554688 -15.5625 11.859375 -15.9375 C 13.472656 -16.195312 14.695312 -16.484375 15.53125 -16.796875 C 16.375 -17.109375 16.941406 -17.457031 17.234375 -17.84375 C 17.523438 -18.238281 17.671875 -18.738281 17.671875 -19.34375 C 17.671875 -20.195312 17.367188 -20.851562 16.765625 -21.3125 C 16.171875 -21.769531 15.171875 -22 13.765625 -22 C 12.273438 -22 10.851562 -21.664062 9.5 -21 C 8.144531 -20.332031 6.972656 -19.453125 5.984375 -18.359375 L 5.5 -18.359375 L 2.65625 -22.625 C 4.03125 -24.144531 5.703125 -25.328125 7.671875 -26.171875 C 9.640625 -27.015625 11.785156 -27.4375 14.109375 -27.4375 C 17.671875 -27.4375 20.25 -26.679688 21.84375 -25.171875 C 23.445312 -23.660156 24.25 -21.507812 24.25 -18.71875 L 24.25 -7.03125 C 24.25 -5.820312 24.773438 -5.21875 25.828125 -5.21875 C 26.234375 -5.21875 26.632812 -5.289062 27.03125 -5.4375 L 27.375 -5.34375 L 27.859375 -0.640625 C 27.484375 -0.390625 26.960938 -0.1875 26.296875 -0.03125 C 25.628906 0.125 24.894531 0.203125 24.09375 0.203125 C 22.488281 0.203125 21.234375 -0.101562 20.328125 -0.71875 C 19.421875 -1.34375 18.773438 -2.316406 18.390625 -3.640625 L 17.875 -3.6875 C 16.550781 -0.882812 14.09375 0.515625 10.5 0.515625 Z M 12.640625 -4.546875 C 14.203125 -4.546875 15.453125 -5.066406 16.390625 -6.109375 C 17.328125 -7.160156 17.796875 -8.625 17.796875 -10.5 L 17.796875 -13.234375 L 17.328125 -13.328125 C 16.921875 -13.003906 16.390625 -12.734375 15.734375 -12.515625 C 15.078125 -12.296875 14.128906 -12.078125 12.890625 -11.859375 C 11.421875 -11.617188 10.363281 -11.203125 9.71875 -10.609375 C 9.082031 -10.015625 8.765625 -9.171875 8.765625 -8.078125 C 8.765625 -6.921875 9.101562 -6.039062 9.78125 -5.4375 C 10.46875 -4.84375 11.421875 -4.546875 12.640625 -4.546875 Z M 12.640625 -4.546875 "/></g></g></g><g fill="#41b8d5" fill-opacity="1"><g transform="translate(180.82883, 191.212605)"><g><path d="M 18.578125 -6.421875 L 20.34375 -1.421875 C 19.601562 -0.816406 18.679688 -0.34375 17.578125 0 C 16.472656 0.34375 15.21875 0.515625 13.8125 0.515625 C 10.90625 0.515625 8.691406 -0.273438 7.171875 -1.859375 C 5.660156 -3.453125 4.90625 -5.765625 4.90625 -8.796875 L 4.90625 -21.578125 L 0.8125 -21.578125 L 0.8125 -26.953125 L 4.90625 -26.953125 L 4.90625 -32.203125 L 11.671875 -33.296875 L 11.671875 -26.953125 L 19.3125 -26.953125 L 19.3125 -21.578125 L 11.671875 -21.578125 L 11.671875 -9.28125 C 11.671875 -7.945312 11.945312 -6.972656 12.5 -6.359375 C 13.050781 -5.742188 13.859375 -5.4375 14.921875 -5.4375 C 16.117188 -5.4375 17.164062 -5.765625 18.0625 -6.421875 Z M 18.578125 -6.421875 "/></g></g></g><g fill="#41b8d5" fill-opacity="1"><g transform="translate(201.748411, 191.212605)"><g><path d="M 10.5 0.515625 C 8.769531 0.515625 7.269531 0.195312 6 -0.4375 C 4.738281 -1.070312 3.765625 -2.003906 3.078125 -3.234375 C 2.390625 -4.460938 2.046875 -5.941406 2.046875 -7.671875 C 2.046875 -9.265625 2.390625 -10.601562 3.078125 -11.6875 C 3.765625 -12.769531 4.820312 -13.65625 6.25 -14.34375 C 7.6875 -15.03125 9.554688 -15.5625 11.859375 -15.9375 C 13.472656 -16.195312 14.695312 -16.484375 15.53125 -16.796875 C 16.375 -17.109375 16.941406 -17.457031 17.234375 -17.84375 C 17.523438 -18.238281 17.671875 -18.738281 17.671875 -19.34375 C 17.671875 -20.195312 17.367188 -20.851562 16.765625 -21.3125 C 16.171875 -21.769531 15.171875 -22 13.765625 -22 C 12.273438 -22 10.851562 -21.664062 9.5 -21 C 8.144531 -20.332031 6.972656 -19.453125 5.984375 -18.359375 L 5.5 -18.359375 L 2.65625 -22.625 C 4.03125 -24.144531 5.703125 -25.328125 7.671875 -26.171875 C 9.640625 -27.015625 11.785156 -27.4375 14.109375 -27.4375 C 17.671875 -27.4375 20.25 -26.679688 21.84375 -25.171875 C 23.445312 -23.660156 24.25 -21.507812 24.25 -18.71875 L 24.25 -7.03125 C 24.25 -5.820312 24.773438 -5.21875 25.828125 -5.21875 C 26.234375 -5.21875 26.632812 -5.289062 27.03125 -5.4375 L 27.375 -5.34375 L 27.859375 -0.640625 C 27.484375 -0.390625 26.960938 -0.1875 26.296875 -0.03125 C 25.628906 0.125 24.894531 0.203125 24.09375 0.203125 C 22.488281 0.203125 21.234375 -0.101562 20.328125 -0.71875 C 19.421875 -1.34375 18.773438 -2.316406 18.390625 -3.640625 L 17.875 -3.6875 C 16.550781 -0.882812 14.09375 0.515625 10.5 0.515625 Z M 12.640625 -4.546875 C 14.203125 -4.546875 15.453125 -5.066406 16.390625 -6.109375 C 17.328125 -7.160156 17.796875 -8.625 17.796875 -10.5 L 17.796875 -13.234375 L 17.328125 -13.328125 C 16.921875 -13.003906 16.390625 -12.734375 15.734375 -12.515625 C 15.078125 -12.296875 14.128906 -12.078125 12.890625 -11.859375 C 11.421875 -11.617188 10.363281 -11.203125 9.71875 -10.609375 C 9.082031 -10.015625 8.765625 -9.171875 8.765625 -8.078125 C 8.765625 -6.921875 9.101562 -6.039062 9.78125 -5.4375 C 10.46875 -4.84375 11.421875 -4.546875 12.640625 -4.546875 Z M 12.640625 -4.546875 "/></g></g></g><g fill="#41b8d5" fill-opacity="1"><g transform="translate(230.137527, 191.212605)"><g><path d="M 13.96875 11.421875 C 9.519531 11.421875 6.238281 10.769531 4.125 9.46875 C 2.007812 8.164062 0.953125 6.351562 0.953125 4.03125 C 0.953125 2.613281 1.398438 1.453125 2.296875 0.546875 C 3.203125 -0.359375 4.503906 -0.960938 6.203125 -1.265625 L 6.203125 -1.78125 C 5.285156 -2.332031 4.628906 -2.945312 4.234375 -3.625 C 3.835938 -4.300781 3.640625 -5.085938 3.640625 -5.984375 C 3.640625 -8.148438 5.046875 -9.609375 7.859375 -10.359375 L 7.859375 -10.859375 C 6.410156 -11.691406 5.316406 -12.722656 4.578125 -13.953125 C 3.847656 -15.179688 3.484375 -16.664062 3.484375 -18.40625 C 3.484375 -20.195312 3.894531 -21.769531 4.71875 -23.125 C 5.539062 -24.488281 6.742188 -25.546875 8.328125 -26.296875 C 9.921875 -27.054688 11.820312 -27.4375 14.03125 -27.4375 C 16.28125 -27.4375 18.070312 -27.046875 19.40625 -26.265625 C 20.238281 -27.472656 20.71875 -28.863281 20.84375 -30.4375 L 21.359375 -30.765625 L 26.21875 -29.5625 C 26.070312 -28.28125 25.695312 -27.203125 25.09375 -26.328125 C 24.488281 -25.460938 23.554688 -24.6875 22.296875 -24 L 22.296875 -23.46875 C 23.804688 -22.125 24.5625 -20.257812 24.5625 -17.875 C 24.5625 -16.207031 24.144531 -14.710938 23.3125 -13.390625 C 22.488281 -12.078125 21.28125 -11.035156 19.6875 -10.265625 C 18.101562 -9.503906 16.21875 -9.125 14.03125 -9.125 L 13.015625 -9.15625 C 12.359375 -9.1875 11.898438 -9.203125 11.640625 -9.203125 C 11.023438 -9.203125 10.539062 -9.035156 10.1875 -8.703125 C 9.84375 -8.367188 9.671875 -7.941406 9.671875 -7.421875 C 9.671875 -6.847656 9.894531 -6.398438 10.34375 -6.078125 C 10.800781 -5.765625 11.472656 -5.59375 12.359375 -5.5625 L 18.390625 -5.34375 C 24.335938 -5.164062 27.3125 -2.601562 27.3125 2.34375 C 27.3125 4.082031 26.867188 5.628906 25.984375 6.984375 C 25.097656 8.347656 23.660156 9.425781 21.671875 10.21875 C 19.691406 11.019531 17.125 11.421875 13.96875 11.421875 Z M 14.03125 -13.875 C 15.332031 -13.875 16.347656 -14.253906 17.078125 -15.015625 C 17.816406 -15.773438 18.1875 -16.863281 18.1875 -18.28125 C 18.1875 -19.695312 17.816406 -20.785156 17.078125 -21.546875 C 16.347656 -22.304688 15.332031 -22.6875 14.03125 -22.6875 C 12.71875 -22.6875 11.703125 -22.304688 10.984375 -21.546875 C 10.265625 -20.785156 9.90625 -19.695312 9.90625 -18.28125 C 9.90625 -16.851562 10.265625 -15.757812 10.984375 -15 C 11.703125 -14.25 12.71875 -13.875 14.03125 -13.875 Z M 13.96875 6.515625 C 16.28125 6.515625 17.957031 6.1875 19 5.53125 C 20.050781 4.882812 20.578125 4.039062 20.578125 3 C 20.578125 2.15625 20.304688 1.53125 19.765625 1.125 C 19.234375 0.726562 18.382812 0.515625 17.21875 0.484375 L 11.890625 0.25 C 11.710938 0.25 11.546875 0.238281 11.390625 0.21875 C 11.234375 0.207031 11.082031 0.203125 10.9375 0.203125 C 9.800781 0.203125 8.9375 0.441406 8.34375 0.921875 C 7.75 1.410156 7.453125 2.085938 7.453125 2.953125 C 7.453125 4.085938 7.992188 4.960938 9.078125 5.578125 C 10.171875 6.203125 11.800781 6.515625 13.96875 6.515625 Z M 13.96875 6.515625 "/></g></g></g><g fill="#41b8d5" fill-opacity="1"><g transform="translate(258.13608, 191.212605)"><g><path d="M 3.875 0 L 3.875 -26.921875 L 10.453125 -26.921875 L 10.453125 -22.921875 L 10.96875 -22.828125 C 11.613281 -24.328125 12.460938 -25.425781 13.515625 -26.125 C 14.578125 -26.820312 15.867188 -27.171875 17.390625 -27.171875 C 18.910156 -27.171875 20.070312 -26.910156 20.875 -26.390625 L 19.734375 -20.5625 L 19.21875 -20.453125 C 18.78125 -20.640625 18.351562 -20.769531 17.9375 -20.84375 C 17.53125 -20.925781 17.035156 -20.96875 16.453125 -20.96875 C 14.566406 -20.96875 13.125 -20.304688 12.125 -18.984375 C 11.132812 -17.660156 10.640625 -15.53125 10.640625 -12.59375 L 10.640625 0 Z M 3.875 0 "/></g></g></g><g fill="#41b8d5" fill-opacity="1"><g transform="translate(279.250943, 191.212605)"><g><path d="M 7.25 -30.15625 C 6.03125 -30.15625 5.035156 -30.523438 4.265625 -31.265625 C 3.503906 -32.003906 3.125 -32.957031 3.125 -34.125 C 3.125 -35.28125 3.503906 -36.226562 4.265625 -36.96875 C 5.035156 -37.71875 6.03125 -38.09375 7.25 -38.09375 C 8.0625 -38.09375 8.785156 -37.921875 9.421875 -37.578125 C 10.054688 -37.234375 10.546875 -36.765625 10.890625 -36.171875 C 11.242188 -35.578125 11.421875 -34.894531 11.421875 -34.125 C 11.421875 -33.363281 11.242188 -32.679688 10.890625 -32.078125 C 10.546875 -31.472656 10.054688 -31 9.421875 -30.65625 C 8.785156 -30.320312 8.0625 -30.15625 7.25 -30.15625 Z M 3.875 0 L 3.875 -26.921875 L 10.640625 -26.921875 L 10.640625 0 Z M 3.875 0 "/></g></g></g><g fill="#41b8d5" fill-opacity="1"><g transform="translate(293.750629, 191.212605)"><g><path d="M 18.578125 -6.421875 L 20.34375 -1.421875 C 19.601562 -0.816406 18.679688 -0.34375 17.578125 0 C 16.472656 0.34375 15.21875 0.515625 13.8125 0.515625 C 10.90625 0.515625 8.691406 -0.273438 7.171875 -1.859375 C 5.660156 -3.453125 4.90625 -5.765625 4.90625 -8.796875 L 4.90625 -21.578125 L 0.8125 -21.578125 L 0.8125 -26.953125 L 4.90625 -26.953125 L 4.90625 -32.203125 L 11.671875 -33.296875 L 11.671875 -26.953125 L 19.3125 -26.953125 L 19.3125 -21.578125 L 11.671875 -21.578125 L 11.671875 -9.28125 C 11.671875 -7.945312 11.945312 -6.972656 12.5 -6.359375 C 13.050781 -5.742188 13.859375 -5.4375 14.921875 -5.4375 C 16.117188 -5.4375 17.164062 -5.765625 18.0625 -6.421875 Z M 18.578125 -6.421875 "/></g></g></g><g fill="#41b8d5" fill-opacity="1"><g transform="translate(314.670198, 191.212605)"><g><path d="M 5.953125 11.421875 C 4.796875 11.421875 3.75 11.332031 2.8125 11.15625 C 1.882812 10.976562 1.125 10.742188 0.53125 10.453125 L 1.609375 4.984375 L 2.046875 4.828125 C 2.453125 5.046875 2.957031 5.21875 3.5625 5.34375 C 4.164062 5.476562 4.785156 5.546875 5.421875 5.546875 C 6.515625 5.546875 7.421875 5.398438 8.140625 5.109375 C 8.867188 4.828125 9.484375 4.351562 9.984375 3.6875 C 10.492188 3.03125 10.941406 2.117188 11.328125 0.953125 L 0.59375 -26.921875 L 7.671875 -26.921875 L 14.359375 -8.203125 L 14.9375 -8.203125 L 21.453125 -26.921875 L 28.34375 -26.921875 L 17.53125 1.6875 C 16.664062 4 15.71875 5.859375 14.6875 7.265625 C 13.65625 8.671875 12.429688 9.710938 11.015625 10.390625 C 9.609375 11.078125 7.921875 11.421875 5.953125 11.421875 Z M 5.953125 11.421875 "/></g></g></g></svg>