<svg xmlns="http://www.w3.org/2000/svg" xmlns:xlink="http://www.w3.org/1999/xlink" width="500" zoomAndPan="magnify" viewBox="0 0 375 374.999991" height="500" preserveAspectRatio="xMidYMid meet" version="1.0"><defs><clipPath id="8eca25e4c4"><path d="M 129 92 L 232 92 L 232 253 L 129 253 Z M 129 92 " clip-rule="nonzero"/></clipPath><clipPath id="fe5c076808"><path d="M 207.140625 75.023438 L 249.640625 234.78125 L 167.527344 256.628906 L 125.027344 96.871094 Z M 207.140625 75.023438 " clip-rule="nonzero"/></clipPath><clipPath id="cc24be98dd"><path d="M 145.976562 92.027344 C 184.570312 91.742188 218.46875 117.605469 228.390625 154.902344 C 238.316406 192.203125 221.75 231.492188 188.113281 250.421875 C 179.96875 255.007812 169.644531 252.121094 165.058594 243.976562 C 160.472656 235.828125 163.359375 225.503906 171.507812 220.917969 C 191.6875 209.558594 201.628906 185.988281 195.675781 163.609375 C 189.71875 141.230469 169.382812 125.710938 146.222656 125.882812 C 136.875 125.949219 129.242188 118.425781 129.171875 109.078125 C 129.105469 99.726562 136.628906 92.09375 145.976562 92.027344 Z M 145.976562 92.027344 " clip-rule="nonzero"/></clipPath><clipPath id="23f18e238d"><path d="M 129 92 L 232 92 L 232 196 L 129 196 Z M 129 92 " clip-rule="nonzero"/></clipPath><clipPath id="bcc9161301"><path d="M 207.460938 74.941406 L 237.976562 189.644531 L 155.542969 211.578125 L 125.027344 96.871094 Z M 207.460938 74.941406 " clip-rule="nonzero"/></clipPath><clipPath id="3ac6473e06"><path d="M 145.976562 92.027344 C 168.84375 91.859375 190.808594 100.953125 206.867188 117.234375 C 222.921875 133.519531 231.707031 155.609375 231.21875 178.472656 C 231.019531 187.820312 223.277344 195.234375 213.933594 195.035156 C 204.585938 194.835938 197.167969 187.097656 197.371094 177.75 C 197.664062 164.03125 192.390625 150.777344 182.757812 141.007812 C 173.125 131.238281 159.945312 125.78125 146.222656 125.882812 C 136.875 125.949219 129.242188 118.425781 129.171875 109.078125 C 129.105469 99.726562 136.628906 92.09375 145.976562 92.027344 Z M 145.976562 92.027344 " clip-rule="nonzero"/></clipPath><clipPath id="9ddf98426e"><path d="M 144 116 L 180 116 L 180 285 L 144 285 Z M 144 116 " clip-rule="nonzero"/></clipPath><clipPath id="6dee4d1f37"><path d="M 173.972656 116.21875 L 180.433594 283.863281 L 150.273438 285.023438 L 143.8125 117.382812 Z M 173.972656 116.21875 " clip-rule="nonzero"/></clipPath><clipPath id="1a99e099e0"><path d="M 174.554688 131.300781 L 179.847656 268.691406 C 180.167969 277.019531 173.679688 284.03125 165.351562 284.351562 C 157.023438 284.671875 150.011719 278.183594 149.6875 269.851562 L 144.394531 132.460938 C 144.074219 124.132812 150.5625 117.121094 158.890625 116.800781 C 167.21875 116.480469 174.230469 122.972656 174.554688 131.300781 Z M 174.554688 131.300781 " clip-rule="nonzero"/></clipPath><clipPath id="3e56670967"><path d="M 144 116 L 178 116 L 178 230 L 144 230 Z M 144 116 " clip-rule="nonzero"/></clipPath><clipPath id="58eb57bbaf"><path d="M 173.972656 116.21875 L 178.300781 228.492188 L 148.140625 229.65625 L 143.8125 117.382812 Z M 173.972656 116.21875 " clip-rule="nonzero"/></clipPath><clipPath id="4fdeac95c4"><path d="M 174.554688 131.300781 L 177.71875 213.398438 C 178.039062 221.726562 171.546875 228.738281 163.21875 229.058594 C 154.890625 229.382812 147.878906 222.890625 147.558594 214.5625 L 144.394531 132.460938 C 144.074219 124.132812 150.5625 117.121094 158.890625 116.800781 C 167.21875 116.480469 174.230469 122.972656 174.554688 131.300781 Z M 174.554688 131.300781 " clip-rule="nonzero"/></clipPath></defs><g clip-path="url(#8eca25e4c4)"><g clip-path="url(#fe5c076808)"><g clip-path="url(#cc24be98dd)"><path fill="#6ce5e8" d="M 206.632812 73.109375 L 250.152344 236.699219 L 168.355469 258.460938 L 124.835938 94.867188 Z M 206.632812 73.109375 " fill-opacity="1" fill-rule="nonzero"/></g></g></g><g clip-path="url(#23f18e238d)"><g clip-path="url(#bcc9161301)"><g clip-path="url(#3ac6473e06)"><path fill="#41b8d5" d="M 206.632812 73.109375 L 250.152344 236.699219 L 168.355469 258.460938 L 124.835938 94.867188 Z M 206.632812 73.109375 " fill-opacity="1" fill-rule="nonzero"/></g></g></g><g clip-path="url(#9ddf98426e)"><g clip-path="url(#6dee4d1f37)"><g clip-path="url(#1a99e099e0)"><path fill="#6ce5e8" d="M 173.972656 116.21875 L 180.429688 283.746094 L 150.269531 284.90625 L 143.8125 117.382812 Z M 173.972656 116.21875 " fill-opacity="1" fill-rule="nonzero"/></g></g></g><g clip-path="url(#3e56670967)"><g clip-path="url(#58eb57bbaf)"><g clip-path="url(#4fdeac95c4)"><path fill="#41b8d5" d="M 173.972656 116.21875 L 180.429688 283.746094 L 150.269531 284.90625 L 143.8125 117.382812 Z M 173.972656 116.21875 " fill-opacity="1" fill-rule="nonzero"/></g></g></g></svg>